<svg xmlns="http://www.w3.org/2000/svg" viewBox="0 0 36.7 10.8"><path d="M9.6 7.8 8.2 9.2c-.6-.6-1.3-.9-2.1-.9s-1.5.3-2.1.9L2.6 7.8l2.9-2.9c-1.1-.2-2.1-.7-2.9-1.4L4 2.1c.6.6 1.3.9 2.1.9s1.5-.3 2.1-.9l1.4 1.4-2.8 2.8c1.1.2 2 .6 2.8 1.4Zm2.8.1c-.4 0-.7 0-.9-.2s-.5-.3-.7-.5c-.2-.2-.3-.4-.4-.7 0-.3-.1-.5-.1-.8 0-.4 0-.7.1-.9 0-.3.2-.5.4-.7.2-.2.4-.4.7-.5.3-.1.6-.2.9-.2s.8 0 1.1.3.5.5.7.8c.2.3.2.7.2 1v.4h-3.7v-.7h3l-.3.3c0-.3 0-.5-.1-.7 0-.2-.2-.3-.3-.4-.2-.1-.3-.2-.6-.2s-.4 0-.6.2c-.2.1-.3.3-.4.5 0 .2-.1.4-.1.7s0 .5.1.7c0 .2.2.4.4.5s.4.2.6.2.5 0 .6-.2c.2-.1.3-.2.3-.4h1c0 .3-.2.5-.4.7s-.4.4-.7.5c-.3.1-.6.2-.9.2Zm2.9-.1V3.6h.8v1.8c0-.4 0-.8.2-1.1.1-.3.3-.5.5-.6.2-.1.5-.2.8-.2.5 0 .9.2 1.1.5.3.3.4.8.4 1.4v2.4H18V5.3c0-.3 0-.5-.2-.6s-.3-.2-.6-.2-.5 0-.6.2c-.2.2-.2.4-.2.6v2.4h-1.1Zm4.4-3.4v-.8h2.9v.8h-2.9Zm2.4 3.4c-.4 0-.7 0-1-.1-.2 0-.4-.3-.5-.5-.1-.2-.2-.6-.2-1V2.4h1v3.8c0 .2 0 .4.2.5s.3.2.5.2h.6v.9h-.6Zm1.4 0V2.2h1.1v3.3h-.2c0-.4 0-.8.2-1.1.1-.3.3-.5.5-.7.2-.2.5-.2.8-.2.5 0 .8.2 1.1.5s.4.8.4 1.4v2.4h-1.1V5.3c0-.3 0-.5-.2-.6s-.3-.2-.6-.2-.5 0-.6.3-.2.4-.2.7v2.4h-1.1Zm5 0V3.6h.8v1.8c0-.6.1-1 .4-1.3.3-.3.6-.5 1.1-.5h.2v.9h-.3c-.4 0-.6 0-.8.3-.2.2-.3.5-.3.8v2.2h-1.1Zm4.3.1c-.3 0-.6 0-.8-.2-.2-.1-.4-.3-.5-.5-.1-.2-.2-.4-.2-.7s0-.6.2-.7.4-.3.6-.4c.3 0 .6-.1 1-.1h1v.6h-1c-.2 0-.4 0-.6.2-.1.1-.2.3-.2.5s0 .3.2.5.3.2.6.2h.4c.1 0 .2-.1.3-.3 0-.1.1-.3.1-.5l.3.3c0 .3 0 .5-.2.7-.1.2-.3.3-.5.5s-.4.2-.7.2Zm1.3-.1V6.6h-.2V5.2c0-.2 0-.4-.2-.5s-.3-.2-.5-.2h-1.5v-.9H33c.4 0 .8 0 1.1.2.3.1.5.3.6.5.1.2.2.6.2.9v2.6h-.8Z" style="fill:#fff"/></svg>